<svg width="24" height="24" viewBox="0 0 24 24" fill="none" xmlns="http://www.w3.org/2000/svg">
<g clip-path="url(#clip0)">
<path d="M18.8572 11.1426C18.5181 11.1426 18.1867 11.2431 17.9048 11.4315C17.6228 11.6199 17.4031 11.8876 17.2734 12.2008C17.1436 12.5141 17.1097 12.8588 17.1758 13.1913C17.242 13.5238 17.4052 13.8293 17.645 14.069C17.8847 14.3088 18.1902 14.4721 18.5227 14.5382C18.8553 14.6044 19.2 14.5704 19.5132 14.4407C19.8264 14.3109 20.0942 14.0912 20.2825 13.8093C20.4709 13.5274 20.5715 13.1959 20.5715 12.8569C20.5715 12.4022 20.3908 11.9662 20.0693 11.6447C19.7479 11.3232 19.3118 11.1426 18.8572 11.1426Z" fill="white"/>
<path d="M12 16.2859C11.3218 16.2859 10.659 16.0848 10.0951 15.708C9.53132 15.3313 9.09187 14.7958 8.83237 14.1693C8.57287 13.5429 8.50497 12.8535 8.63726 12.1884C8.76955 11.5233 9.09609 10.9124 9.57559 10.4329C10.0551 9.95342 10.666 9.62688 11.3311 9.49459C11.9962 9.3623 12.6855 9.4302 13.312 9.6897C13.9385 9.9492 14.474 10.3886 14.8507 10.9525C15.2274 11.5163 15.4285 12.1792 15.4285 12.8573C15.4274 13.7663 15.0658 14.6377 14.4231 15.2804C13.7803 15.9231 12.9089 16.2847 12 16.2859ZM12 11.143C11.6609 11.143 11.3295 11.2435 11.0475 11.4319C10.7656 11.6203 10.5459 11.888 10.4162 12.2013C10.2864 12.5145 10.2525 12.8592 10.3186 13.1917C10.3848 13.5243 10.548 13.8297 10.7878 14.0695C11.0275 14.3092 11.333 14.4725 11.6655 14.5386C11.9981 14.6048 12.3427 14.5708 12.656 14.4411C12.9692 14.3113 13.237 14.0916 13.4253 13.8097C13.6137 13.5278 13.7142 13.1963 13.7142 12.8573C13.7138 12.4028 13.533 11.967 13.2116 11.6456C12.8902 11.3242 12.4545 11.1435 12 11.143Z" fill="white"/>
<path d="M5.14291 11.1426C4.80385 11.1426 4.47241 11.2431 4.1905 11.4315C3.90859 11.6199 3.68886 11.8876 3.55911 12.2008C3.42936 12.5141 3.39541 12.8588 3.46156 13.1913C3.52771 13.5238 3.69098 13.8293 3.93072 14.069C4.17047 14.3088 4.47593 14.4721 4.80847 14.5382C5.14101 14.6044 5.48569 14.5704 5.79894 14.4407C6.11218 14.3109 6.37992 14.0912 6.56828 13.8093C6.75665 13.5274 6.85719 13.1959 6.85719 12.8569C6.85719 12.4022 6.67658 11.9662 6.35509 11.6447C6.0336 11.3232 5.59756 11.1426 5.14291 11.1426Z" fill="white"/>
<path d="M22.2857 19.7143H1.71429C1.25998 19.7132 0.824599 19.5322 0.503353 19.2109C0.182107 18.8897 0.00113153 18.4543 0 18V7.71429C0.00113153 7.25998 0.182107 6.8246 0.503353 6.50335C0.824599 6.18211 1.25998 6.00113 1.71429 6H22.2857C22.74 6.00113 23.1754 6.18211 23.4966 6.50335C23.8179 6.8246 23.9989 7.25998 24 7.71429V18C23.9993 18.4544 23.8185 18.8901 23.4971 19.2114C23.1758 19.5328 22.7402 19.7136 22.2857 19.7143ZM22.2857 7.71429H1.71429V18H22.2857V7.71429Z" fill="white"/>
</g>
<defs>
<clipPath id="clip0">
<rect width="24" height="24" fill="white"/>
</clipPath>
</defs>
</svg>
