<svg width="20" height="17" viewBox="0 0 20 17" fill="none" xmlns="http://www.w3.org/2000/svg">
<path d="M14.0909 15.7275V14.0911C14.0909 13.2231 13.7461 12.3907 13.1324 11.7769C12.5186 11.1632 11.6862 10.8184 10.8182 10.8184H4.27273C3.40475 10.8184 2.57232 11.1632 1.95856 11.7769C1.3448 12.3907 1 13.2231 1 14.0911V15.7275" stroke="white" stroke-width="1.5" stroke-linecap="round" stroke-linejoin="round"/>
<path d="M7.54546 7.54545C9.35294 7.54545 10.8182 6.0802 10.8182 4.27273C10.8182 2.46525 9.35294 1 7.54546 1C5.73799 1 4.27274 2.46525 4.27274 4.27273C4.27274 6.0802 5.73799 7.54545 7.54546 7.54545Z" stroke="white" stroke-width="1.5" stroke-linecap="round" stroke-linejoin="round"/>
<path d="M19 15.7275V14.0912C18.9994 13.366 18.7581 12.6616 18.3138 12.0885C17.8696 11.5154 17.2475 11.1061 16.5454 10.9248" stroke="white" stroke-width="1.5" stroke-linecap="round" stroke-linejoin="round"/>
<path d="M13.2727 1.10645C13.9767 1.28669 14.6007 1.69611 15.0463 2.27015C15.4918 2.8442 15.7337 3.55022 15.7337 4.2769C15.7337 5.00358 15.4918 5.7096 15.0463 6.28365C14.6007 6.85769 13.9767 7.26711 13.2727 7.44735" stroke="white" stroke-width="1.5" stroke-linecap="round" stroke-linejoin="round"/>
</svg>
